<?xml version="1.0" encoding="UTF-8"?>
<svg width="16" height="16" version="1.1" viewBox="0 0 16 16" xmlns="http://www.w3.org/2000/svg">
  <path d="M8 0C3.582 0 0 3.582 0 8s3.582 8 8 8 8-3.582 8-8-3.582-8-8-8zm1.406 5.594c.148.89-.533 1.368-1.438 1.688.658.164 1.137.656 1.094 1.562-.055 1.157-1.07 1.79-2.844 1.688V12.5H5.5v-1.938H4.812V12.5h-.718v-1.938H2.5v-.718c.273 0 .656.054.844-.156.117-.133.156-.336.156-.532V6.344c0-.195-.04-.398-.156-.53-.188-.212-.57-.158-.844-.158v-.718h1.594V3h.718v1.938H5.5V3h.718v1.969c1.532-.047 2.508.281 2.688 1.625zM5.5 6.343v2.313c1.196.07 2.008-.234 2.125-1.157.101-.797-.532-1.242-2.125-1.156zm0 3.03v2.47c1.438.078 2.266-.227 2.406-1.283.133-.999-.656-1.266-2.406-1.188z" fill="currentColor"/>
</svg>
